<?xml version="1.0" encoding="UTF-8" standalone="no"?>
<!-- Created with Inkscape (http://www.inkscape.org/) -->

<svg
   width="128mm"
   height="64mm"
   viewBox="0 0 128 63.999999"
   version="1.1"
   id="svg5"
   inkscape:version="1.1 (1:1.1+202105261517+ce6663b3b7)"
   sodipodi:docname="TEAK_UV_meterX.svg"
   inkscape:export-filename="/home/ildus/TEAK_UV_meter.png"
   inkscape:export-xdpi="101.6"
   inkscape:export-ydpi="101.6"
   xmlns:inkscape="http://www.inkscape.org/namespaces/inkscape"
   xmlns:sodipodi="http://sodipodi.sourceforge.net/DTD/sodipodi-0.dtd"
   xmlns="http://www.w3.org/2000/svg"
   xmlns:svg="http://www.w3.org/2000/svg">
  <sodipodi:namedview
     id="namedview7"
     pagecolor="#ffffff"
     bordercolor="#666666"
     borderopacity="1.0"
     inkscape:pageshadow="2"
     inkscape:pageopacity="0.0"
     inkscape:pagecheckerboard="0"
     inkscape:document-units="mm"
     showgrid="false"
     inkscape:zoom="1.4142136"
     inkscape:cx="143.18912"
     inkscape:cy="89.449005"
     inkscape:window-width="1848"
     inkscape:window-height="1016"
     inkscape:window-x="72"
     inkscape:window-y="27"
     inkscape:window-maximized="1"
     inkscape:current-layer="layer1" />
  <defs
     id="defs2">
    <linearGradient
       id="linearGradient441681"
       inkscape:swatch="gradient">
      <stop
         style="stop-color:#e8d092;stop-opacity:1;"
         offset="0"
         id="stop441677" />
      <stop
         style="stop-color:#e8d092;stop-opacity:0;"
         offset="1"
         id="stop441679" />
    </linearGradient>
  </defs>
  <g
     inkscape:label="Layer 1"
     inkscape:groupmode="layer"
     id="layer1"
     transform="translate(-44.920788,-49.490631)">
    <rect
       style="opacity:1;fill:#e8d092;fill-opacity:1;stroke:none;stroke-width:0;stroke-miterlimit:4;stroke-dasharray:none;stroke-opacity:1"
       id="rect400085"
       width="128"
       height="64"
       x="44.920788"
       y="49.490631" />
    <path
       id="path8701"
       style="opacity:1;fill:#4e3e26;fill-opacity:1;stroke:#ff0000;stroke-width:0;stroke-miterlimit:4;stroke-dasharray:none;stroke-opacity:1"
       d="m 410.75195,254.11914 c -0.88162,0.0155 -1.76313,0.0324 -2.64453,0.0508 l 0.43164,27.29102 -0.88476,-0.0117 c -3.75223,0.0762 -7.50206,0.18297 -11.24805,0.32031 l -2.77148,-27.32226 c -1.39023,0.023 -2.78023,0.0497 -4.16993,0.0801 l 2.77735,27.36133 c -4.54913,0.13733 -9.09294,0.31965 -13.62891,0.54688 l -5.3418,-27.23828 c -0.889,0.0499 -1.77767,0.10134 -2.66601,0.15429 l 5.3457,27.25586 c -3.60748,0.20404 -7.20882,0.43649 -10.80273,0.69727 l -7.51953,-27.20117 c -1.41554,0.0782 -2.83028,0.16022 -4.24414,0.24609 l 7.52734,27.23047 c -10.25343,0.81999 -20.43315,1.87048 -30.50977,3.14844 l -12.80859,-26.72266 c -1.44354,0.19511 -2.88497,0.39434 -4.32422,0.59766 l 12.8125,26.7246 c -13.18902,1.71918 -26.17665,3.82618 -38.89844,6.31055 l -19.40234,-25.67969 c -1.51518,0.29285 -3.02692,0.59039 -4.53516,0.89258 l 19.46485,25.76563 c -6.12749,1.23817 -12.18713,2.56356 -18.17188,3.97461 l 1.89844,2.12304 c 8.83997,-2.04881 17.82677,-3.91026 26.93663,-5.58158 36.61732,-6.71793 75.22296,-10.36418 114.27431,-10.76021 51.46211,-0.33266 102.4165,4.98838 149.32617,15.59375 l 1.9375,-2.19922 c -30.67777,-7.15612 -63.20334,-12.02427 -96.5918,-14.45703 l 7.27149,-27.15039 c -0.89542,-0.0654 -1.79125,-0.12915 -2.6875,-0.19141 l -7.26172,27.10547 c -4.70671,-0.28685 -9.42446,-0.52518 -14.15039,-0.71484 l 4.7539,-27.3711 c -0.88776,-0.0412 -1.77579,-0.0809 -2.66406,-0.11914 l -4.75,27.35742 c -4.29418,-0.20892 -8.59567,-0.37757 -12.90234,-0.50586 l 2.27929,-27.39648 c -1.38839,-0.0304 -2.77708,-0.0571 -4.16601,-0.0801 l -2.28125,27.42578 c -4.85552,-0.11054 -9.71528,-0.1698 -14.57617,-0.17773 z"
       transform="scale(0.26458333)"
       sodipodi:nodetypes="ccccccccccccccccccccccccccsccccccccccccccccc" />
    <path
       style="opacity:1;fill:#cd3626;fill-opacity:1;stroke:#ff0000;stroke-width:0;stroke-miterlimit:4;stroke-dasharray:none;stroke-opacity:1"
       d="m 539.97461,264.6543 -17.31836,26.51758 a 352.11407,181.20645 0 0 1 4.48242,0.73632 l 17.29102,-26.47461 a 404.56634,208.22981 0 0 0 -4.45508,-0.77929 z"
       transform="scale(0.26458333)"
       id="path10692" />
    <path
       style="opacity:1;fill:#cd3626;fill-opacity:1;stroke:#ff0000;stroke-width:0;stroke-miterlimit:4;stroke-dasharray:none;stroke-opacity:1"
       d="m 126.70886,72.444822 -1.26568,3.522932 a 47.465072,91.462449 89.530678 0 1 22.0586,3.442466 l 2.67337,-3.083831 a 51.096177,95.599233 89.530678 0 0 -23.46629,-3.881567 z"
       id="path10129" />
    <path
       style="opacity:1;fill:#cd3626;fill-opacity:1;stroke:#ff0000;stroke-width:0;stroke-miterlimit:4;stroke-dasharray:none;stroke-opacity:1"
       d="m 521.58984,261.76172 -14.75586,26.9414 a 352.11407,181.20645 0 0 1 2.80469,0.38672 l 14.74219,-26.91406 a 404.56634,208.22981 0 0 0 -2.79102,-0.41406 z"
       transform="scale(0.26458333)"
       id="path10690" />
    <path
       style="opacity:1;fill:#cd3626;fill-opacity:1;stroke:#ff0000;stroke-width:0;stroke-miterlimit:4;stroke-dasharray:none;stroke-opacity:1"
       d="m 503.15039,259.34961 -12.28906,27.2793 a 352.11407,181.20645 0 0 1 2.76172,0.30859 l 12.27343,-27.24805 a 404.56634,208.22981 0 0 0 -2.74609,-0.33984 z"
       transform="scale(0.26458333)"
       id="path10686" />
    <path
       style="opacity:1;fill:#cd3626;fill-opacity:1;stroke:#ff0000;stroke-width:0;stroke-miterlimit:4;stroke-dasharray:none;stroke-opacity:1"
       d="m 484.83789,257.42188 -9.93945,27.5332 a 352.11407,181.20645 0 0 1 4.28711,0.37109 l 9.92187,-27.48828 a 404.56634,208.22981 0 0 0 -4.26953,-0.41601 z"
       transform="scale(0.26458333)"
       id="path10684" />
    <g
       aria-label="20 10 7 5 3 0 3"
       transform="matrix(1.1761081,0,0,0.85026198,1.107038,-0.44039161)"
       id="text12608"
       style="font-size:6.01269px;line-height:1.25;font-family:'Phetsarath OT';-inkscape-font-specification:'Phetsarath OT';fill:#333333;stroke:none;stroke-width:0.281844;stroke-opacity:1">
      <path
         d="m 56.437511,81.58295 v 0.507907 H 53.59264 q -0.0059,-0.190832 0.06165,-0.366985 0.108627,-0.290653 0.346434,-0.572497 0.240742,-0.281845 0.692868,-0.651767 0.701677,-0.575433 0.948291,-0.910124 0.246614,-0.337626 0.246614,-0.637086 0,-0.31414 -0.226063,-0.528459 -0.223127,-0.217256 -0.584241,-0.217256 -0.381665,0 -0.610664,0.228999 -0.228999,0.228999 -0.231934,0.634151 l -0.543139,-0.05578 q 0.05578,-0.607728 0.419831,-0.924803 0.36405,-0.320012 0.97765,-0.320012 0.619471,0 0.980585,0.343499 0.361114,0.343498 0.361114,0.851406 0,0.258358 -0.105692,0.507908 -0.105692,0.24955 -0.352306,0.525523 -0.243679,0.275973 -0.81324,0.757458 -0.475613,0.399281 -0.610664,0.543139 -0.135051,0.140922 -0.223127,0.284781 z"
         id="path68110"
         style="fill:#333333;stroke:none;stroke-opacity:1" />
      <path
         d="m 57.004137,79.968213 q 0,-0.763329 0.155602,-1.227199 0.158538,-0.466806 0.466805,-0.719292 0.311204,-0.252486 0.780946,-0.252486 0.346434,0 0.607727,0.140923 0.261294,0.137986 0.431575,0.402216 0.170282,0.261294 0.267166,0.640023 0.09688,0.375793 0.09688,1.015815 0,0.757458 -0.155602,1.224264 -0.155602,0.46387 -0.466805,0.719292 -0.308268,0.252486 -0.780945,0.252486 -0.622408,0 -0.97765,-0.446255 -0.425703,-0.537267 -0.425703,-1.749787 z m 0.543139,0 q 0,1.059855 0.246614,1.412161 0.24955,0.34937 0.6136,0.34937 0.364049,0 0.610663,-0.352306 0.249551,-0.352306 0.249551,-1.409225 0,-1.062789 -0.249551,-1.41216 -0.246614,-0.34937 -0.616535,-0.34937 -0.36405,0 -0.581305,0.308268 -0.273037,0.393408 -0.273037,1.453262 z"
         id="path68112"
         style="fill:#333333;stroke:none;stroke-opacity:1" />
      <path
         d="m 67.363705,79.513417 h -0.528459 v -3.367458 q -0.190832,0.182025 -0.502036,0.364049 -0.308268,0.182025 -0.554882,0.273038 v -0.510844 q 0.443319,-0.208448 0.775073,-0.504972 0.331755,-0.296525 0.469742,-0.575434 h 0.340562 z"
         id="path68114"
         style="fill:#333333;stroke:none;stroke-opacity:1" />
      <path
         d="m 68.022166,77.430395 q 0,-0.763329 0.155602,-1.227199 0.158538,-0.466806 0.466806,-0.719292 0.311203,-0.252486 0.780945,-0.252486 0.346434,0 0.607728,0.140923 0.261293,0.137986 0.431575,0.402216 0.170281,0.261294 0.267165,0.640023 0.09688,0.375793 0.09688,1.015815 0,0.757458 -0.155602,1.224264 -0.155601,0.46387 -0.466805,0.719292 -0.308268,0.252486 -0.780945,0.252486 -0.622408,0 -0.977649,-0.446255 -0.425704,-0.537267 -0.425704,-1.749787 z m 0.543139,0 q 0,1.059855 0.246614,1.412161 0.24955,0.34937 0.6136,0.34937 0.364049,0 0.610664,-0.352306 0.24955,-0.352306 0.24955,-1.409225 0,-1.062789 -0.24955,-1.41216 -0.246615,-0.34937 -0.616536,-0.34937 -0.36405,0 -0.581305,0.308268 -0.273037,0.393408 -0.273037,1.453262 z"
         id="path68116"
         style="fill:#333333;stroke:none;stroke-opacity:1" />
      <path
         d="m 76.802276,74.518729 v -0.507907 h 2.786153 v 0.411023 q -0.411023,0.437447 -0.816175,1.16261 -0.402216,0.725164 -0.622408,1.491429 -0.158537,0.540203 -0.202576,1.183161 h -0.543138 q 0.0088,-0.507907 0.19964,-1.227199 0.190832,-0.719292 0.546074,-1.385737 0.358178,-0.669382 0.760394,-1.12738 z"
         id="path68118"
         style="fill:#333333;stroke:none;stroke-opacity:1" />
      <path
         d="m 85.239523,76.481852 0.554882,-0.04697 q 0.06165,0.405152 0.28478,0.610664 0.226063,0.202576 0.543139,0.202576 0.381665,0 0.645894,-0.287717 0.26423,-0.287716 0.26423,-0.76333 0,-0.452126 -0.255422,-0.713419 -0.252486,-0.261294 -0.66351,-0.261294 -0.255422,0 -0.460934,0.117435 -0.205511,0.1145 -0.322947,0.29946 l -0.496164,-0.06459 0.416895,-2.210721 h 2.14026 v 0.504972 h -1.717492 l -0.231935,1.156739 q 0.387536,-0.270102 0.81324,-0.270102 0.563689,0 0.951226,0.390473 0.387537,0.390472 0.387537,1.004072 0,0.584241 -0.340563,1.009944 -0.41396,0.522588 -1.130315,0.522588 -0.587177,0 -0.960034,-0.328819 -0.369922,-0.328819 -0.422767,-0.871958 z"
         id="path68120"
         style="fill:#333333;stroke:none;stroke-opacity:1" />
      <path
         d="m 94.672053,76.486864 0.528459,-0.07046 q 0.09101,0.44919 0.308268,0.648831 0.220191,0.196704 0.534331,0.196704 0.372857,0 0.628279,-0.258358 0.258358,-0.258358 0.258358,-0.640023 0,-0.364049 -0.237807,-0.59892 -0.237806,-0.237807 -0.604792,-0.237807 -0.14973,0 -0.372857,0.05872 l 0.05872,-0.46387 q 0.05285,0.0059 0.08514,0.0059 0.337627,0 0.607728,-0.176153 0.270101,-0.176153 0.270101,-0.543138 0,-0.290653 -0.196704,-0.481485 -0.196704,-0.190833 -0.507908,-0.190833 -0.308268,0 -0.513779,0.193769 -0.205512,0.193768 -0.26423,0.581305 l -0.528459,-0.09395 q 0.09688,-0.531395 0.440383,-0.822047 0.343498,-0.293589 0.854342,-0.293589 0.352306,0 0.64883,0.152666 0.296524,0.149731 0.452126,0.411024 0.158538,0.261294 0.158538,0.554882 0,0.278909 -0.14973,0.507908 -0.14973,0.228999 -0.443319,0.36405 0.381665,0.08808 0.593049,0.366985 0.211384,0.275973 0.211384,0.692869 0,0.563689 -0.411024,0.957098 -0.411024,0.390472 -1.039303,0.390472 -0.566626,0 -0.942419,-0.337626 -0.372857,-0.337627 -0.425703,-0.874894 z"
         id="path68122"
         style="fill:#333333;stroke:none;stroke-opacity:1" />
      <path
         d="m 108.29363,76.640828 q 0,-0.763329 0.1556,-1.227199 0.15854,-0.466806 0.4668,-0.719292 0.31121,-0.252486 0.78095,-0.252486 0.34643,0 0.60773,0.140923 0.26129,0.137986 0.43157,0.402216 0.17028,0.261294 0.26717,0.640023 0.0969,0.375793 0.0969,1.015815 0,0.757458 -0.15561,1.224264 -0.1556,0.46387 -0.4668,0.719292 -0.30827,0.252486 -0.78095,0.252486 -0.6224,0 -0.97765,-0.446255 -0.4257,-0.537267 -0.4257,-1.749787 z m 0.54313,0 q 0,1.059855 0.24662,1.412161 0.24955,0.34937 0.6136,0.34937 0.36405,0 0.61066,-0.352306 0.24955,-0.352306 0.24955,-1.409225 0,-1.062789 -0.24955,-1.41216 -0.24661,-0.34937 -0.61653,-0.34937 -0.36405,0 -0.58131,0.308268 -0.27304,0.393408 -0.27304,1.453262 z"
         id="path68124"
         style="fill:#cd3626;stroke:none;stroke-opacity:1;fill-opacity:1" />
      <path
         d="m 121.09295,80.46343 0.52846,-0.07046 q 0.091,0.44919 0.30826,0.648831 0.2202,0.196704 0.53433,0.196704 0.37286,0 0.62828,-0.258358 0.25836,-0.258358 0.25836,-0.640023 0,-0.364049 -0.23781,-0.59892 -0.2378,-0.237807 -0.60479,-0.237807 -0.14973,0 -0.37285,0.05872 l 0.0587,-0.46387 q 0.0528,0.0059 0.0851,0.0059 0.33762,0 0.60772,-0.176153 0.27011,-0.176153 0.27011,-0.543138 0,-0.290653 -0.19671,-0.481485 -0.1967,-0.190833 -0.50791,-0.190833 -0.30826,0 -0.51378,0.193769 -0.20551,0.193768 -0.26423,0.581305 l -0.52846,-0.09395 q 0.0969,-0.531395 0.44039,-0.822047 0.3435,-0.293589 0.85434,-0.293589 0.35231,0 0.64883,0.152666 0.29652,0.149731 0.45213,0.411024 0.15853,0.261294 0.15853,0.554882 0,0.278909 -0.14973,0.507908 -0.14973,0.228999 -0.44331,0.36405 0.38166,0.08808 0.59304,0.366985 0.21139,0.275973 0.21139,0.692869 0,0.563689 -0.41103,0.957098 -0.41102,0.390472 -1.0393,0.390472 -0.56662,0 -0.94242,-0.337626 -0.37286,-0.337627 -0.4257,-0.874894 z"
         id="path68126"
         style="fill:#cd3626;stroke:none;stroke-opacity:1;fill-opacity:1" />
      <g
         aria-label="- +"
         transform="scale(0.85026198,1.1761081)"
         id="text70571"
         style="font-size:10.5833px;font-family:sans-serif;fill:#333333;stroke:none;stroke-width:0.0745712;stroke-opacity:1">
        <path
           d="m 55.994557,65.400263 h 3.774758 v 0.691306 h -3.774758 z"
           id="path81713"
           style="fill:#333333;stroke:none;stroke-width:0.078405;stroke-opacity:1" />
        <path
           d="m 158.34098,64.05693 v 1.478872 h 1.79813 v 0.451362 h -1.79813 v 1.478872 h -0.54236 v -1.478872 h -1.79813 v -0.451362 h 1.79813 V 64.05693 Z"
           id="path81715"
           style="fill:#cd3626;fill-opacity:1;stroke:none;stroke-width:0.0422476;stroke-opacity:1" />
      </g>
    </g>
    <text
       xml:space="preserve"
       style="font-style:normal;font-weight:normal;font-size:9.46885px;line-height:1.25;font-family:sans-serif;fill:#4e3e26;fill-opacity:1;stroke:none;stroke-width:0.295901"
       x="90.981056"
       y="102.89381"
       id="text128397"
       transform="scale(1.1183675,0.89416049)"><tspan
         sodipodi:role="line"
         id="tspan128395"
         style="font-size:9.46885px;fill:#4e3e26;fill-opacity:1;stroke-width:0.295901"
         x="90.981056"
         y="102.89381">VU</tspan></text>
    <text
       xml:space="preserve"
       style="font-style:normal;font-variant:normal;font-weight:normal;font-stretch:normal;font-size:3.18485px;line-height:1.25;font-family:'Bitstream Vera Sans Mono';-inkscape-font-specification:'Bitstream Vera Sans Mono';fill:#4e3e26;fill-opacity:1;stroke:none;stroke-width:0.29858"
       x="122.05204"
       y="107.53628"
       id="text138779"
       transform="scale(1.2630296,0.7917471)"><tspan
         sodipodi:role="line"
         id="tspan138777"
         style="font-style:normal;font-variant:normal;font-weight:normal;font-stretch:normal;font-size:3.18485px;font-family:'Bitstream Vera Sans Mono';-inkscape-font-specification:'Bitstream Vera Sans Mono';fill:#4e3e26;fill-opacity:1;stroke-width:0.29858"
         x="122.05204"
         y="107.53628">PEAK</tspan></text>
    <ellipse
       style="opacity:1;fill:#b1412b;fill-opacity:1;stroke:none;stroke-width:0;stroke-miterlimit:4;stroke-dasharray:none;stroke-opacity:1"
       id="path172027"
       cx="159.14323"
       cy="77.824966"
       rx="2.9773483"
       ry="2.8909044" />
    <text
       xml:space="preserve"
       style="font-style:normal;font-weight:normal;font-size:5.23067px;line-height:1.25;font-family:sans-serif;fill:#4e3e26;fill-opacity:1;stroke:none;stroke-width:0.280215"
       x="134.18251"
       y="121.98824"
       id="text183199"
       transform="scale(1.0799266,0.92598886)"><tspan
         sodipodi:role="line"
         id="tspan183197"
         style="font-style:normal;font-variant:normal;font-weight:normal;font-stretch:normal;font-size:5.23067px;font-family:'Abyssinica SIL';-inkscape-font-specification:'Abyssinica SIL';fill:#4e3e26;fill-opacity:1;stroke-width:0.280215"
         x="134.18251"
         y="121.98824">TEAC</tspan></text>
    <text
       xml:space="preserve"
       style="font-style:normal;font-weight:normal;font-size:3.70264px;line-height:1.25;font-family:sans-serif;fill:#4e3e26;fill-opacity:1;stroke:none;stroke-width:0.277697"
       x="52.766514"
       y="117.41158"
       id="text213674"
       transform="scale(1.049566,0.95277478)"><tspan
         sodipodi:role="line"
         id="tspan213672"
         style="font-style:normal;font-variant:normal;font-weight:normal;font-stretch:normal;font-size:3.70264px;font-family:Vemana2000;-inkscape-font-specification:Vemana2000;fill:#4e3e26;fill-opacity:1;stroke-width:0.277697"
         x="52.766514"
         y="117.41158">6206006101</tspan></text>
    <path
       id="ellipse245703"
       style="opacity:1;fill:#4e3e26;fill-opacity:1;stroke:#ff0000;stroke-width:0;stroke-miterlimit:4;stroke-dasharray:none;stroke-opacity:1"
       d="m 411.78906,401.36328 a 61.919451,66.165833 88.659435 0 0 -39.48828,13.07031 h -67.78125 v 1.79102 h 18.03516 47.375 2.54687 a 59.7061,65.85683 89.094077 0 1 39.31836,-12.64844 59.7061,65.85683 89.094077 0 1 41.36719,12.64844 h 2.6875 52.46094 12.01757 v -1.79102 h -66.77734 a 61.919451,66.165833 88.659435 0 0 -41.76172,-13.07031 z"
       transform="scale(0.26458333)" />
    <path
       id="ellipse246429"
       style="opacity:1;fill:#4e3e26;fill-opacity:1;stroke:#ff0000;stroke-width:0;stroke-miterlimit:4;stroke-dasharray:none;stroke-opacity:1"
       d="m 412.05664,406.45703 a 59.241507,59.425739 45.004672 0 0 -35.50391,12.5957 h 73.03907 a 59.241507,59.425739 45.004672 0 0 -37.53516,-12.5957 z"
       transform="scale(0.26458333)" />
  </g>
</svg>
